<svg xmlns="http://www.w3.org/2000/svg" viewBox="0 0 783 364.51"><defs><style>.cls-1{isolation:isolate;}.cls-2,.cls-5{fill:#fff;}.cls-3{fill:none;}.cls-3,.cls-5{stroke:#e0e0e0;stroke-miterlimit:10;stroke-width:3px;}.cls-4{mix-blend-mode:multiply;font-size:150px;font-family:Poppins-Bold, Poppins;font-weight:700;letter-spacing:-0.02em;}</style></defs><title>Asset 1</title><g class="cls-1"><g id="Layer_2" data-name="Layer 2"><g id="Layer_1-2" data-name="Layer 1"><path class="cls-2" d="M100.33,313.19H50.91c-27.17,0-49.41-22.5-49.41-50V51.5a50.15,50.15,0,0,1,50-50h680a50.15,50.15,0,0,1,50,50V263.19a50.15,50.15,0,0,1-50,50H174.6"/><path class="cls-3" d="M100.33,313.19H50.91c-27.17,0-49.41-22.5-49.41-50V51.5a50.15,50.15,0,0,1,50-50h680a50.15,50.15,0,0,1,50,50V263.19a50.15,50.15,0,0,1-50,50H174.6"/><text class="cls-4" transform="translate(127.28 233.75)">MixLab</text><polyline class="cls-5" points="101.27 311.72 101.27 361.72 174.6 313.19 177.66 313.19"/></g></g></g></svg>