<svg xmlns="http://www.w3.org/2000/svg" width="37" height="22" viewBox="0 0 37 22">
  <path fill="#FFF" fill-rule="evenodd" d="M108,10.8721147 L108,7.48733056 L104.4,7.48733056 L104.4,10.8721147 L100.8,10.8721147 L100.8,14.2568988 L104.4,14.2568988 L104.4,17.641683 L108,17.641683 L108,14.2568988 L111.6,14.2568988 L111.6,10.8721147 L108,10.8721147 Z M97.92,10.8721147 C98.0172,10.8721147 98.1,12.3478806 98.1,13.0569929 C98.1,19.2240696 93.7044,24 87.0786,24 C80.7336,24 75.6,19.1682206 75.6,13.2025386 C75.6,7.23516415 80.7336,2.4 87.0786,2.4 C90.1782,2.4 92.7702,3.4458983 94.77,5.20429366 L91.6542,7.9916634 C90.8028,7.21993262 89.3088,6.25696153 87.0786,6.25696153 C83.16,6.25696153 79.9614,9.16956828 79.9614,12.9317559 C79.9614,16.6939434 83.16,19.4694664 87.0786,19.4694664 C91.6218,19.4694664 93.3282,15.9492909 93.5892,14.2568988 L86.4,14.2568988 L86.4,10.8721147 L97.92,10.8721147 Z" transform="translate(-75 -2)"/>
</svg>
