<svg xmlns="http://www.w3.org/2000/svg" width="21" height="28" viewBox="0 0 21 28">
  <path d="M10.3157895,17.6842105 C12.7547368,17.6842105 14.7221053,15.7021053 14.7221053,13.2631579 L14.7368421,4.42105263 C14.7368421,1.97473684 12.7621053,0 10.3157895,0 C7.87684211,0 5.89473684,1.97473684 5.89473684,4.42105263 L5.89473684,13.2631579 C5.89473684,15.7021053 7.87684211,17.6842105 10.3157895,17.6842105 Z M18.1263158,13.2631579 C18.1263158,17.6842105 14.3905263,20.7789474 10.3157895,20.7789474 C6.24842105,20.7789474 2.50526316,17.6842105 2.50526316,13.2631579 L0,13.2631579 C0,18.2957895 4.00842105,22.4515789 8.84210526,23.1663158 L8.84210526,28 L11.7894737,28 L11.7894737,23.1663158 C16.6231579,22.4515789 20.6315789,18.2957895 20.6315789,13.2631579 L18.1263158,13.2631579 Z"/>
</svg>
