<svg xmlns="http://www.w3.org/2000/svg" width="27" height="22" viewBox="0 0 27 22">
  <path fill="#FFF" fill-rule="evenodd" d="M8.4915,24 C18.67995,24 24.25275,15.6889317 24.25275,8.48237283 C24.25275,8.24578717 24.25275,8.01053063 24.23655,7.77660324 C25.3206,7.00570613 26.25615,6.0487304 27,4.95352485 C25.9902,5.39479699 24.91695,5.68454798 23.8194,5.81214474 C24.975,5.13029954 25.84035,4.05901838 26.2548,2.79501295 C25.1667,3.4303385 23.97735,3.8782563 22.7367,4.11882936 C20.6388,1.92310173 17.13015,1.8167711 14.8986,3.8822437 C13.46085,5.21403491 12.8493,7.19975954 13.29615,9.09377399 C8.8425,8.87313792 4.6926,6.80234878 1.8792,3.39578104 C0.40905,5.88790532 1.161,9.07516613 3.59505,10.6754422 C2.7135,10.6501887 1.85085,10.4162613 1.08,9.99359699 L1.08,10.0627119 C1.08135,12.6585086 2.9403,14.8941102 5.5242,15.4084846 C4.7088,15.6277916 3.8529,15.6596908 3.024,15.5015239 C3.74895,17.7238342 5.8293,19.2456914 8.19855,19.2895528 C6.237,20.8074227 3.81375,21.6314851 1.31895,21.6288268 C0.87885,21.6274977 0.43875,21.6022442 0,21.550408 C2.53395,23.150684 5.481,24 8.4915,23.9960126" transform="translate(0 -2)"/>
</svg>
