<svg xmlns="http://www.w3.org/2000/svg" width="182" height="24" viewBox="0 0 182 24">
  <g fill="#FFF" fill-rule="evenodd">
    <path d="M.122909699 9.28235294C.122909699 4.18235294 4.38963211.0176470588 9.48160535.0176470588 12.2909699.0176470588 14.2926421 1.12941176 15.8026756 2.57647059L14.0292642 4.35882353C12.958194 3.33529412 11.4832776 2.55882353 9.48160535 2.55882353 5.77675585 2.55882353 2.87959866 5.55882353 2.87959866 9.28235294 2.87959866 13.0058824 5.77675585 16.0058824 9.48160535 16.0058824 11.8871237 16.0058824 13.256689 15.0352941 14.1346154 14.1529412 14.8545151 13.4294118 15.3285953 12.3882353 15.5041806 10.9764706L9.48160535 10.9764706 9.48160535 8.45294118 17.9623746 8.45294118C18.0501672 8.91176471 18.1028428 9.44117647 18.1028428 10.0411765 18.1028428 11.9470588 17.5936455 14.2941176 15.9255853 15.9529412 14.3102007 17.6470588 12.2382943 18.5470588 9.49916388 18.5470588 4.38963211 18.5294118.122909699 14.3823529.122909699 9.28235294L.122909699 9.28235294zM24.9331104 6.61764706C28.2165552 6.61764706 30.8854515 9.12352941 30.8854515 12.5823529 30.8854515 16.0235294 28.2165552 18.5470588 24.9331104 18.5470588 21.6496656 18.5470588 18.9807692 16.0235294 18.9807692 12.5823529 18.9807692 9.12352941 21.6496656 6.61764706 24.9331104 6.61764706zM24.9331104 16.1823529C26.7240803 16.1823529 28.2867893 14.7 28.2867893 12.5647059 28.2867893 10.4117647 26.7240803 8.94705882 24.9331104 8.94705882 23.1245819 8.94705882 21.5794314 10.4117647 21.5794314 12.5647059 21.5794314 14.7 23.1421405 16.1823529 24.9331104 16.1823529zM37.9264214 6.61764706C41.2098662 6.61764706 43.8787625 9.12352941 43.8787625 12.5823529 43.8787625 16.0235294 41.2098662 18.5470588 37.9264214 18.5470588 34.6429766 18.5470588 31.9740803 16.0235294 31.9740803 12.5823529 31.9740803 9.12352941 34.6429766 6.61764706 37.9264214 6.61764706zM37.9264214 16.1823529C39.7173913 16.1823529 41.2801003 14.7 41.2801003 12.5647059 41.2801003 10.4117647 39.7349498 8.94705882 37.9264214 8.94705882 36.117893 8.94705882 34.5727425 10.4117647 34.5727425 12.5647059 34.5727425 14.7 36.1354515 16.1823529 37.9264214 16.1823529zM53.8695652 6.97058824L53.8695652 6.97058824 56.3628763 6.97058824 56.3628763 17.6823529C56.3628763 22.0941176 53.7817726 23.8941176 50.7265886 23.8941176 47.84699 23.8941176 46.1086957 21.9529412 45.4590301 20.3647059L47.7240803 19.4117647C48.1279264 20.3823529 49.111204 21.5294118 50.7090301 21.5294118 52.6580268 21.5294118 53.8695652 20.3117647 53.8695652 18.0352941L53.8695652 17.1705882 53.7817726 17.1705882C53.2023411 17.8941176 52.0785953 18.5294118 50.6563545 18.5294118 47.6889632 18.5294118 44.9673913 15.9176471 44.9673913 12.5823529 44.9673913 9.21176471 47.6889632 6.6 50.6563545 6.6 52.0785953 6.6 53.2023411 7.23529412 53.7817726 7.94117647L53.8695652 7.94117647 53.8695652 6.97058824zM50.8846154 16.1823529C52.6580268 16.1823529 54.062709 14.6823529 54.0451505 12.5823529 54.0451505 10.4823529 52.6580268 8.94705882 50.8846154 8.94705882 49.0936455 8.94705882 47.583612 10.4823529 47.583612 12.5823529 47.583612 14.6647059 49.0936455 16.1823529 50.8846154 16.1823529zM58.1538462.652941176L60.7525084.652941176 60.7525084 18.1764706 58.1538462 18.1764706 58.1538462.652941176zM67.8988294 16.1823529L67.8988294 16.1823529C69.2332776 16.1823529 70.1463211 15.5294118 70.8311037 14.5411765L72.8503344 15.9C72.1831104 16.8705882 70.6204013 18.5470588 67.8988294 18.5470588 64.527592 18.5470588 62.0167224 15.9176471 62.0167224 12.5823529 62.0167224 9.03529412 64.562709 6.61764706 67.617893 6.61764706 70.6906355 6.61764706 72.2006689 9.07058824 72.6923077 10.4117647L72.9556856 11.0823529 65.0192308 14.3823529C65.6337793 15.5647059 66.5643813 16.1823529 67.8988294 16.1823529zM67.7056856 8.91176471C66.3712375 8.91176471 64.527592 10.0941176 64.5978261 12.3882353L69.9005017 10.1823529C69.6195652 9.42352941 68.7416388 8.91176471 67.7056856 8.91176471zM87.8331236 14.6790272C87.8331236 13.9823962 87.5833253 13.3983608 87.0837212 12.9269034 86.5841171 12.455446 85.7045457 12.0543615 84.4449805 11.7236376 82.8828382 11.3366204 81.6637521 10.7666581 80.7876858 10.0137336 79.9116195 9.26080919 79.473593 8.31439032 79.473593 7.17444863 79.473593 5.97117684 79.9450432 4.9684654 80.887958 4.16628421 81.8308727 3.36410302 83.0552362 2.96301844 84.5610851 2.96301844 86.1795208 2.96301844 87.4689725 3.42215473 88.429479 4.3404411 89.3899854 5.25872746 89.8561582 6.33004548 89.8280115 7.55442729L89.7963466 7.61775707 87.8120136 7.61775707C87.8120136 6.74520911 87.5076819 6.02396053 86.8990093 5.45398968 86.2903368 4.88401883 85.5110365 4.59903769 84.5610851 4.59903769 83.5900236 4.59903769 82.8459062 4.83476283 82.3287104 5.3062202 81.8115146 5.77767757 81.5529206 6.38985929 81.5529206 7.14278374 81.5529206 7.81126807 81.8361426 8.36891636 82.4025952 8.81574536 82.9690477 9.26257435 83.8890794 9.65486322 85.1627179 9.99262372 86.7107869 10.3937143 87.8894126 10.9847863 88.6986305 11.7658575 89.5078484 12.5469286 89.9124512 13.5109389 89.9124512 14.6579173 89.9124512 15.8963725 89.4251687 16.8920474 88.4505889 17.6449718 87.4760091 18.3978963 86.2041488 18.7743528 84.6349698 18.7743528 83.1502309 18.7743528 81.8396695 18.3591951 80.7032461 17.5288672 79.5668228 16.6985393 79.0162111 15.586761 79.0513944 14.1934989L79.0725044 14.1301692 81.0568374 14.1301692C81.0568374 15.0941939 81.4227391 15.8383114 82.1545535 16.3625438 82.8863679 16.8867763 83.7131651 17.1488886 84.6349698 17.1488886 85.6201046 17.1488886 86.3994049 16.9272365 86.9728941 16.4839259 87.5463833 16.0406152 87.8331236 15.4389884 87.8331236 14.6790272zM99.5913522 18.5526986C99.5209854 18.2079014 99.466452 17.9035697 99.4277503 17.6396943 99.3890486 17.3758189 99.3661797 17.1101884 99.359143 16.8427946 98.9721258 17.3916554 98.4672518 17.8507917 97.8445058 18.2202173 97.2217599 18.5896428 96.5515265 18.7743528 95.8337854 18.7743528 94.644587 18.7743528 93.7386284 18.4700211 93.1158825 17.8613485 92.4931365 17.252676 92.1817683 16.4135648 92.1817683 15.3439899 92.1817683 14.2533049 92.6233131 13.4001206 93.5064161 12.7844114 94.3895191 12.1687022 95.5874954 11.8608521 97.100381 11.8608521L99.359143 11.8608521 99.359143 10.7314711C99.359143 10.0629868 99.1550824 9.53348479 98.7469552 9.14294921 98.3388279 8.75241363 97.761829 8.55714877 97.0159413 8.55714877 96.3404203 8.55714877 95.795086 8.72602648 95.379922 9.06378698 94.9647581 9.40154749 94.7571792 9.80615035 94.7571792 10.2776077L92.7834011 10.2987176 92.7622912 10.2353879C92.7130345 9.40505997 93.1018051 8.64511024 93.9286146 7.95551588 94.7554242 7.26592153 95.8232239 6.92112952 97.1320458 6.92112952 98.4267944 6.92112952 99.468207 7.25008924 100.256315 7.90801855 101.044423 8.56594786 101.438471 9.51412588 101.438471 10.752581L101.438471 16.2517167C101.438471 16.659844 101.45958 17.053892 101.5018 17.4338725 101.544021 17.8138531 101.621423 18.1867914 101.73401 18.5526986L99.5913522 18.5526986zM96.1398793 17.032784C96.8928038 17.032784 97.5718329 16.8392782 98.1769872 16.452261 98.7821414 16.0652438 99.1761894 15.6219398 99.359143 15.1223357L99.359143 13.2646622 97.0264962 13.2646622C96.1891316 13.2646622 95.5188982 13.4757594 95.0157758 13.89796 94.5126534 14.3201606 94.2610959 14.8162389 94.2610959 15.3862097 94.2610959 15.8928505 94.4194188 16.2939351 94.7360693 16.5894755 95.0527197 16.885016 95.5206518 17.032784 96.1398793 17.032784zM107.950883 14.3201585L108.320307 15.7556335 108.383636 15.7556335 111.191256 7.13222878 113.502793 7.13222878 108.700285 20.3048225C108.411781 21.0718203 107.998383 21.7402946 107.460077 22.3102654 106.921771 22.8802362 106.195245 23.1652174 105.280477 23.1652174 105.111597 23.1652174 104.896982 23.1458668 104.636624 23.1071651 104.376267 23.0684634 104.175725 23.0315214 104.034992 22.996338L104.246091 21.3603187C104.203871 21.3532821 104.32877 21.3603186 104.620792 21.3814287 104.912814 21.4025387 105.097524 21.4130936 105.174928 21.4130936 105.618238 21.4130936 105.980622 21.2160695 106.262089 20.8220156 106.543556 20.4279617 106.779281 19.9916943 106.969271 19.5132002L107.465355 18.3204894 103.222259 7.13222878 105.544351 7.13222878 107.950883 14.3201585zM121.506381 4.37738347L121.506381 7.13222878 123.670149 7.13222878 123.670149 8.67325336 121.506381 8.67325336 121.506381 15.607864C121.506381 16.1426514 121.617207 16.519108 121.838863 16.737245 122.060518 16.955382 122.354295 17.0644488 122.720202 17.0644488 122.839826 17.0644488 122.97352 17.0486166 123.121291 17.0169515 123.269061 16.9852865 123.392201 16.9518628 123.490714 16.9166794L123.775698 18.3415994C123.620891 18.4682595 123.392203 18.572049 123.089626 18.6529708 122.787049 18.7338925 122.487994 18.7743528 122.192454 18.7743528 121.348053 18.7743528 120.67606 18.5192771 120.176456 18.009118 119.676852 17.4989589 119.427054 16.6985489 119.427054 15.607864L119.427054 8.67325336 117.6116 8.67325336 117.6116 7.13222878 119.427054 7.13222878 119.427054 4.37738347 121.506381 4.37738347zM125.411718 12.7369141C125.411718 11.0481116 125.869095 9.65662954 126.783863 8.56242625 127.698631 7.46822296 128.940586 6.92112952 130.509765 6.92112952 132.093017 6.92112952 133.343768 7.46646382 134.262054 8.55714877 135.18034 9.64783372 135.639477 11.0410749 135.639477 12.7369141L135.639477 12.9691233C135.639477 14.6719991 135.182099 16.0652403 134.267331 17.1488886 133.352563 18.2325368 132.10709 18.7743528 130.530875 18.7743528 128.954659 18.7743528 127.707427 18.2307777 126.78914 17.1436111 125.870854 16.0564445 125.411718 14.6649624 125.411718 12.9691233L125.411718 12.7369141zM127.491045 12.9691233C127.491045 14.1794317 127.746121 15.1786249 128.25628 15.9667327 128.766439 16.7548405 129.52463 17.1488886 130.530875 17.1488886 131.523046 17.1488886 132.275959 16.7548405 132.789637 15.9667327 133.303314 15.1786249 133.560149 14.1794317 133.560149 12.9691233L133.560149 12.7369141C133.560149 11.540679 133.301555 10.5450041 132.784359 9.74985957 132.267163 8.95471506 131.508973 8.55714877 130.509765 8.55714877 129.517593 8.55714877 128.766439 8.95471506 128.25628 9.74985957 127.746121 10.5450041 127.491045 11.540679 127.491045 12.7369141L127.491045 12.9691233zM143.833054 12.3886003L143.833054 18.5526986 141.753726 18.5526986 141.753726 3.18467266 147.632841 3.18467266C149.272386 3.18467266 150.547765 3.60686695 151.459015 4.45126821 152.370264 5.29566946 152.825882 6.40744776 152.825882 7.78663648 152.825882 9.17989854 152.370264 10.2951951 151.459015 11.1325597 150.547765 11.9699243 149.272386 12.3886003 147.632841 12.3886003L143.833054 12.3886003zM143.833054 10.763136L147.632841 10.763136C148.674269 10.763136 149.45181 10.4834323 149.965487 9.92401646 150.479165 9.36460063 150.736 8.65918433 150.736 7.8077464 150.736 6.95630847 150.477406 6.24561475 149.96021 5.6756439 149.443014 5.10567306 148.667232 4.82069191 147.632841 4.82069191L143.833054 4.82069191 143.833054 10.763136zM157.459511 18.5526986L155.380183 18.5526986 155.380183 2.08695652 157.459511 2.08695652 157.459511 18.5526986zM167.676715 18.5526986C167.606348 18.2079014 167.551815 17.9035697 167.513113 17.6396943 167.474411 17.3758189 167.451543 17.1101884 167.444506 16.8427946 167.057489 17.3916554 166.552615 17.8507917 165.929869 18.2202173 165.307123 18.5896428 164.636889 18.7743528 163.919148 18.7743528 162.72995 18.7743528 161.823991 18.4700211 161.201245 17.8613485 160.578499 17.252676 160.267131 16.4135648 160.267131 15.3439899 160.267131 14.2533049 160.708676 13.4001206 161.591779 12.7844114 162.474882 12.1687022 163.672858 11.8608521 165.185744 11.8608521L167.444506 11.8608521 167.444506 10.7314711C167.444506 10.0629868 167.240445 9.53348479 166.832318 9.14294921 166.424191 8.75241363 165.847192 8.55714877 165.101304 8.55714877 164.425783 8.55714877 163.880449 8.72602648 163.465285 9.06378698 163.050121 9.40154749 162.842542 9.80615035 162.842542 10.2776077L160.868764 10.2987176 160.847654 10.2353879C160.798397 9.40505997 161.187168 8.64511024 162.013977 7.95551588 162.840787 7.26592153 163.908587 6.92112952 165.217409 6.92112952 166.512157 6.92112952 167.55357 7.25008924 168.341678 7.90801855 169.129786 8.56594786 169.523834 9.51412588 169.523834 10.752581L169.523834 16.2517167C169.523834 16.659844 169.544943 17.053892 169.587163 17.4338725 169.629383 17.8138531 169.706786 18.1867914 169.819372 18.5526986L167.676715 18.5526986zM164.225242 17.032784C164.978167 17.032784 165.657196 16.8392782 166.26235 16.452261 166.867504 16.0652438 167.261552 15.6219398 167.444506 15.1223357L167.444506 13.2646622 165.111859 13.2646622C164.274494 13.2646622 163.604261 13.4757594 163.101139 13.89796 162.598016 14.3201606 162.346459 14.8162389 162.346459 15.3862097 162.346459 15.8928505 162.504782 16.2939351 162.821432 16.5894755 163.138083 16.885016 163.606015 17.032784 164.225242 17.032784zM176.036246 14.3201585L176.405669 15.7556335 176.468999 15.7556335 179.276619 7.13222878 181.588156 7.13222878 176.785648 20.3048225C176.497144 21.0718203 176.083746 21.7402946 175.54544 22.3102654 175.007134 22.8802362 174.280608 23.1652174 173.36584 23.1652174 173.19696 23.1652174 172.982344 23.1458668 172.721987 23.1071651 172.46163 23.0684634 172.261088 23.0315214 172.120354 22.996338L172.331454 21.3603187C172.289234 21.3532821 172.414133 21.3603186 172.706155 21.3814287 172.998177 21.4025387 173.182887 21.4130936 173.26029 21.4130936 173.703601 21.4130936 174.065984 21.2160695 174.347452 20.8220156 174.628919 20.4279617 174.864644 19.9916943 175.054634 19.5132002L175.550717 18.3204894 171.307622 7.13222878 173.629714 7.13222878 176.036246 14.3201585z"/>
  </g>
</svg>
