<?xml version="1.0" encoding="utf-8"?>
<!-- Generator: Adobe Illustrator 21.1.0, SVG Export Plug-In . SVG Version: 6.00 Build 0)  -->
<svg version="1.1" id="symbol" xmlns="http://www.w3.org/2000/svg" xmlns:xlink="http://www.w3.org/1999/xlink" x="0px" y="0px"
	 viewBox="0 0 188 186" style="enable-background:new 0 0 188 186;" xml:space="preserve">
<circle id="background" class="background" cx="94.5" cy="92.5" r="85.5"/>
<circle id="circle" class="circle" cx="94.5" cy="92.5" r="50"/>
<path id="icon" class="icon " d="M108.4,91.3c0,8.2-6.9,13.9-14.4,13.9c-7.5,0-14.4-5.7-14.4-13.9H75c0,9.3,7.4,17,16.3,18.3v8.9h5.4
	v-8.9c8.9-1.3,16.3-9,16.3-18.3H108.4z M94,99.5c4.5,0,8.1-3.7,8.1-8.2l0-16.3c0-4.5-3.6-8.2-8.2-8.2c-4.5,0-8.2,3.6-8.2,8.2v16.3
	C85.8,95.8,89.5,99.5,94,99.5z"/>
</svg>
